<mxfile host="app.diagrams.net" modified="2023-07-20T06:09:38.261Z" agent="Mozilla/5.0 (Windows NT 10.0; Win64; x64) AppleWebKit/537.36 (KHTML, like Gecko) Chrome/115.0.0.0 Safari/537.36" etag="01zztqklMoo6Y3ansK2g" version="21.6.3" type="google">
  <diagram name="Page-1" id="W2z449J8qsSKC8pYuh3Q">
    <mxGraphModel grid="1" page="1" gridSize="10" guides="1" tooltips="1" connect="1" arrows="1" fold="1" pageScale="1" pageWidth="850" pageHeight="1100" math="0" shadow="0">
      <root>
        <mxCell id="0" />
        <mxCell id="1" parent="0" />
        <mxCell id="ssMn_EyBkLxvwHTFp7AE-2" value="Person" style="swimlane;fontStyle=1;align=center;verticalAlign=top;childLayout=stackLayout;horizontal=1;startSize=26;horizontalStack=0;resizeParent=1;resizeParentMax=0;resizeLast=0;collapsible=1;marginBottom=0;whiteSpace=wrap;html=1;" vertex="1" parent="1">
          <mxGeometry x="330" y="-1080" width="160" height="180" as="geometry" />
        </mxCell>
        <mxCell id="ssMn_EyBkLxvwHTFp7AE-3" value="- name: string&lt;br&gt;-age: int" style="text;strokeColor=none;fillColor=none;align=left;verticalAlign=top;spacingLeft=4;spacingRight=4;overflow=hidden;rotatable=0;points=[[0,0.5],[1,0.5]];portConstraint=eastwest;whiteSpace=wrap;html=1;" vertex="1" parent="ssMn_EyBkLxvwHTFp7AE-2">
          <mxGeometry y="26" width="160" height="64" as="geometry" />
        </mxCell>
        <mxCell id="ssMn_EyBkLxvwHTFp7AE-4" value="" style="line;strokeWidth=1;fillColor=none;align=left;verticalAlign=middle;spacingTop=-1;spacingLeft=3;spacingRight=3;rotatable=0;labelPosition=right;points=[];portConstraint=eastwest;strokeColor=inherit;" vertex="1" parent="ssMn_EyBkLxvwHTFp7AE-2">
          <mxGeometry y="90" width="160" height="8" as="geometry" />
        </mxCell>
        <mxCell id="ssMn_EyBkLxvwHTFp7AE-5" value="+ getName(): string&lt;br&gt;+setName(string): void&lt;br&gt;+getAge():int&lt;br&gt;+setAge(): void" style="text;strokeColor=none;fillColor=none;align=left;verticalAlign=top;spacingLeft=4;spacingRight=4;overflow=hidden;rotatable=0;points=[[0,0.5],[1,0.5]];portConstraint=eastwest;whiteSpace=wrap;html=1;" vertex="1" parent="ssMn_EyBkLxvwHTFp7AE-2">
          <mxGeometry y="98" width="160" height="82" as="geometry" />
        </mxCell>
        <mxCell id="ssMn_EyBkLxvwHTFp7AE-6" value="Student" style="swimlane;fontStyle=1;align=center;verticalAlign=top;childLayout=stackLayout;horizontal=1;startSize=26;horizontalStack=0;resizeParent=1;resizeParentMax=0;resizeLast=0;collapsible=1;marginBottom=0;whiteSpace=wrap;html=1;" vertex="1" parent="1">
          <mxGeometry x="190" y="-840" width="160" height="110" as="geometry" />
        </mxCell>
        <mxCell id="ssMn_EyBkLxvwHTFp7AE-7" value="-rollno: int" style="text;strokeColor=none;fillColor=none;align=left;verticalAlign=top;spacingLeft=4;spacingRight=4;overflow=hidden;rotatable=0;points=[[0,0.5],[1,0.5]];portConstraint=eastwest;whiteSpace=wrap;html=1;" vertex="1" parent="ssMn_EyBkLxvwHTFp7AE-6">
          <mxGeometry y="26" width="160" height="26" as="geometry" />
        </mxCell>
        <mxCell id="ssMn_EyBkLxvwHTFp7AE-8" value="" style="line;strokeWidth=1;fillColor=none;align=left;verticalAlign=middle;spacingTop=-1;spacingLeft=3;spacingRight=3;rotatable=0;labelPosition=right;points=[];portConstraint=eastwest;strokeColor=inherit;" vertex="1" parent="ssMn_EyBkLxvwHTFp7AE-6">
          <mxGeometry y="52" width="160" height="8" as="geometry" />
        </mxCell>
        <mxCell id="ssMn_EyBkLxvwHTFp7AE-9" value="+getRollNo(): int&lt;br&gt;+setRollNo(int): void" style="text;strokeColor=none;fillColor=none;align=left;verticalAlign=top;spacingLeft=4;spacingRight=4;overflow=hidden;rotatable=0;points=[[0,0.5],[1,0.5]];portConstraint=eastwest;whiteSpace=wrap;html=1;" vertex="1" parent="ssMn_EyBkLxvwHTFp7AE-6">
          <mxGeometry y="60" width="160" height="50" as="geometry" />
        </mxCell>
        <mxCell id="ssMn_EyBkLxvwHTFp7AE-10" value="Teacher" style="swimlane;fontStyle=1;align=center;verticalAlign=top;childLayout=stackLayout;horizontal=1;startSize=26;horizontalStack=0;resizeParent=1;resizeParentMax=0;resizeLast=0;collapsible=1;marginBottom=0;whiteSpace=wrap;html=1;" vertex="1" parent="1">
          <mxGeometry x="460" y="-840" width="160" height="130" as="geometry" />
        </mxCell>
        <mxCell id="ssMn_EyBkLxvwHTFp7AE-11" value="-empId: int" style="text;strokeColor=none;fillColor=none;align=left;verticalAlign=top;spacingLeft=4;spacingRight=4;overflow=hidden;rotatable=0;points=[[0,0.5],[1,0.5]];portConstraint=eastwest;whiteSpace=wrap;html=1;" vertex="1" parent="ssMn_EyBkLxvwHTFp7AE-10">
          <mxGeometry y="26" width="160" height="26" as="geometry" />
        </mxCell>
        <mxCell id="ssMn_EyBkLxvwHTFp7AE-12" value="" style="line;strokeWidth=1;fillColor=none;align=left;verticalAlign=middle;spacingTop=-1;spacingLeft=3;spacingRight=3;rotatable=0;labelPosition=right;points=[];portConstraint=eastwest;strokeColor=inherit;" vertex="1" parent="ssMn_EyBkLxvwHTFp7AE-10">
          <mxGeometry y="52" width="160" height="8" as="geometry" />
        </mxCell>
        <mxCell id="ssMn_EyBkLxvwHTFp7AE-13" value="+getEmpId(): int&lt;br&gt;+setEmpId(int): void&lt;br&gt;+getSalary(): float&lt;br&gt;+setSalary(float): void" style="text;strokeColor=none;fillColor=none;align=left;verticalAlign=top;spacingLeft=4;spacingRight=4;overflow=hidden;rotatable=0;points=[[0,0.5],[1,0.5]];portConstraint=eastwest;whiteSpace=wrap;html=1;" vertex="1" parent="ssMn_EyBkLxvwHTFp7AE-10">
          <mxGeometry y="60" width="160" height="70" as="geometry" />
        </mxCell>
        <mxCell id="ssMn_EyBkLxvwHTFp7AE-15" value="Extends" style="endArrow=block;endSize=16;endFill=0;html=1;rounded=0;exitX=0.625;exitY=-0.029;exitDx=0;exitDy=0;exitPerimeter=0;entryX=0.245;entryY=1.024;entryDx=0;entryDy=0;entryPerimeter=0;" edge="1" parent="1" source="ssMn_EyBkLxvwHTFp7AE-6" target="ssMn_EyBkLxvwHTFp7AE-5">
          <mxGeometry width="160" relative="1" as="geometry">
            <mxPoint x="210" y="-840" as="sourcePoint" />
            <mxPoint x="370" y="-890" as="targetPoint" />
          </mxGeometry>
        </mxCell>
        <mxCell id="ssMn_EyBkLxvwHTFp7AE-17" value="Extends" style="endArrow=block;endSize=16;endFill=0;html=1;rounded=0;exitX=0.453;exitY=-0.018;exitDx=0;exitDy=0;exitPerimeter=0;entryX=0.82;entryY=1.024;entryDx=0;entryDy=0;entryPerimeter=0;" edge="1" parent="1" source="ssMn_EyBkLxvwHTFp7AE-10" target="ssMn_EyBkLxvwHTFp7AE-5">
          <mxGeometry width="160" relative="1" as="geometry">
            <mxPoint x="500" y="-880" as="sourcePoint" />
            <mxPoint x="460" y="-890" as="targetPoint" />
          </mxGeometry>
        </mxCell>
        <mxCell id="ssMn_EyBkLxvwHTFp7AE-18" value="Address" style="swimlane;fontStyle=1;align=center;verticalAlign=top;childLayout=stackLayout;horizontal=1;startSize=26;horizontalStack=0;resizeParent=1;resizeParentMax=0;resizeLast=0;collapsible=1;marginBottom=0;whiteSpace=wrap;html=1;" vertex="1" parent="1">
          <mxGeometry x="580" y="-1060" width="160" height="160" as="geometry" />
        </mxCell>
        <mxCell id="ssMn_EyBkLxvwHTFp7AE-19" value="-city: sring&lt;br&gt;-state: string" style="text;strokeColor=none;fillColor=none;align=left;verticalAlign=top;spacingLeft=4;spacingRight=4;overflow=hidden;rotatable=0;points=[[0,0.5],[1,0.5]];portConstraint=eastwest;whiteSpace=wrap;html=1;" vertex="1" parent="ssMn_EyBkLxvwHTFp7AE-18">
          <mxGeometry y="26" width="160" height="44" as="geometry" />
        </mxCell>
        <mxCell id="ssMn_EyBkLxvwHTFp7AE-20" value="" style="line;strokeWidth=1;fillColor=none;align=left;verticalAlign=middle;spacingTop=-1;spacingLeft=3;spacingRight=3;rotatable=0;labelPosition=right;points=[];portConstraint=eastwest;strokeColor=inherit;" vertex="1" parent="ssMn_EyBkLxvwHTFp7AE-18">
          <mxGeometry y="70" width="160" height="8" as="geometry" />
        </mxCell>
        <mxCell id="ssMn_EyBkLxvwHTFp7AE-21" value="+getCity(): string&lt;br&gt;+setCity(string): void&lt;br&gt;+getState(): string&lt;br&gt;+setState(string): void" style="text;strokeColor=none;fillColor=none;align=left;verticalAlign=top;spacingLeft=4;spacingRight=4;overflow=hidden;rotatable=0;points=[[0,0.5],[1,0.5]];portConstraint=eastwest;whiteSpace=wrap;html=1;" vertex="1" parent="ssMn_EyBkLxvwHTFp7AE-18">
          <mxGeometry y="78" width="160" height="82" as="geometry" />
        </mxCell>
        <mxCell id="ssMn_EyBkLxvwHTFp7AE-22" value="" style="endArrow=diamondThin;endFill=0;endSize=24;html=1;rounded=0;exitX=1.015;exitY=0.813;exitDx=0;exitDy=0;exitPerimeter=0;entryX=1.015;entryY=0.813;entryDx=0;entryDy=0;entryPerimeter=0;" edge="1" parent="1" target="ssMn_EyBkLxvwHTFp7AE-3">
          <mxGeometry width="160" relative="1" as="geometry">
            <mxPoint x="580" y="-1000" as="sourcePoint" />
            <mxPoint x="420" y="-1000" as="targetPoint" />
          </mxGeometry>
        </mxCell>
        <mxCell id="ssMn_EyBkLxvwHTFp7AE-23" value="«interface»&lt;br&gt;&lt;b&gt;Salary&lt;/b&gt;" style="html=1;whiteSpace=wrap;" vertex="1" parent="1">
          <mxGeometry x="690" y="-830" width="110" height="50" as="geometry" />
        </mxCell>
        <mxCell id="ssMn_EyBkLxvwHTFp7AE-25" value="" style="endArrow=block;dashed=1;endFill=0;endSize=12;html=1;rounded=0;" edge="1" parent="1">
          <mxGeometry width="160" relative="1" as="geometry">
            <mxPoint x="620" y="-800" as="sourcePoint" />
            <mxPoint x="690" y="-800" as="targetPoint" />
          </mxGeometry>
        </mxCell>
        <mxCell id="ssMn_EyBkLxvwHTFp7AE-26" value="1" style="text;align=center;fontStyle=1;verticalAlign=middle;spacingLeft=3;spacingRight=3;strokeColor=none;rotatable=0;points=[[0,0.5],[1,0.5]];portConstraint=eastwest;html=1;" vertex="1" parent="1">
          <mxGeometry x="490" y="-1030" width="30" height="26" as="geometry" />
        </mxCell>
        <mxCell id="ssMn_EyBkLxvwHTFp7AE-27" value="n" style="text;align=center;fontStyle=1;verticalAlign=middle;spacingLeft=3;spacingRight=3;strokeColor=none;rotatable=0;points=[[0,0.5],[1,0.5]];portConstraint=eastwest;html=1;" vertex="1" parent="1">
          <mxGeometry x="550" y="-1030" width="30" height="26" as="geometry" />
        </mxCell>
      </root>
    </mxGraphModel>
  </diagram>
</mxfile>
